<?xml version="1.0" encoding="utf-8"?>
<!-- Generator: Adobe Illustrator 16.0.0, SVG Export Plug-In . SVG Version: 6.00 Build 0)  -->
<!DOCTYPE svg PUBLIC "-//W3C//DTD SVG 1.1//EN" "http://www.w3.org/Graphics/SVG/1.1/DTD/svg11.dtd">
<svg version="1.1" id="Warstwa_1" xmlns="http://www.w3.org/2000/svg" xmlns:xlink="http://www.w3.org/1999/xlink" x="0px" y="0px"
	 width="100px" height="100px" viewBox="0 0 100 100" enable-background="new 0 0 100 100" xml:space="preserve">
<path fill="#EFEFEF" d="M10.714,14.286C4.797,14.286,0,19.075,0,25c0.133,16.247,0,33.443,0,50c0,5.702,4.436,10.317,10.044,10.658
	l79.688,0.057C95.445,85.483,100,80.777,100,75V23.159c-0.867-5.051-5.252-8.873-10.547-8.873
	C63.221,14.298,36.957,14.286,10.714,14.286L10.714,14.286z M10.547,19.922h79.241L51.45,58.26c-0.699,0.699-1.812,0.699-2.511,0
	L10.547,19.922L10.547,19.922z M94.644,22.656v51.953c0,3.096-1.115,4.844-3.349,5.469L64.286,53.014L94.644,22.656L94.644,22.656z
	 M5.972,22.879l29.855,29.855L8.54,80.021c-1.868-0.63-2.519-2.134-2.567-4.185L5.972,22.879L5.972,22.879z M39.622,56.473
	l9.319,9.375c0.699,0.699,1.812,0.699,2.511,0l9.04-9.041l23.551,23.551H15.739L39.622,56.473L39.622,56.473z"/>
</svg>
